<?xml version="1.0" encoding="UTF-8" standalone="no"?>
<!DOCTYPE svg PUBLIC "-//W3C//DTD SVG 1.1//EN" "http://www.w3.org/Graphics/SVG/1.1/DTD/svg11.dtd">
<svg width="100%" height="100%" viewBox="0 0 68 78" version="1.1" xmlns="http://www.w3.org/2000/svg" xmlns:xlink="http://www.w3.org/1999/xlink" xml:space="preserve" xmlns:serif="http://www.serif.com/" style="fill-rule:evenodd;clip-rule:evenodd;stroke-linejoin:round;stroke-miterlimit:2;">
    <g id="Tavola-da-disegno1" serif:id="Tavola da disegno1" transform="matrix(0.755556,0,0,0.690265,0,0)">
        <rect x="0" y="0" width="90" height="113" style="fill:none;"/>
        <g transform="matrix(1.32353,0,0,1.44872,-14.5588,-8.69231)">
            <path d="M29.773,35.177C29.595,41.115 39.343,46.225 51.55,46.592C63.753,46.957 73.792,42.442 73.971,36.503C74.15,30.566 64.4,25.456 52.195,25.089C39.99,24.722 29.951,29.239 29.773,35.177ZM42.177,35.25C39.454,35.168 37.285,33.898 37.329,32.415C37.374,30.93 39.616,29.794 42.338,29.875C45.058,29.957 47.229,31.226 47.185,32.711C47.14,34.195 44.897,35.332 42.177,35.25Z" style="fill:rgb(248,150,156);fill-rule:nonzero;"/>
            <path d="M78.097,64.205C77.499,54.82 62.198,48.154 43.919,49.318C25.64,50.482 11.307,59.035 11.904,68.422C12.503,77.809 27.804,84.475 46.083,83.311C64.362,82.145 78.694,73.592 78.097,64.205ZM29.609,66.723C24.917,67.022 20.978,65.19 20.816,62.629C20.653,60.068 24.327,57.752 29.018,57.453C33.71,57.154 37.647,58.986 37.811,61.547C37.974,64.105 34.302,66.424 29.609,66.723Z" style="fill:rgb(248,150,156);fill-rule:nonzero;"/>
            <path d="M41.233,21.106C49.294,19.781 55.306,15.54 54.664,11.633C54.022,7.725 46.968,5.631 38.908,6.954C30.848,8.277 24.835,12.518 25.477,16.426C26.119,20.335 33.174,22.43 41.233,21.106ZM33.152,11.533C34.942,11.239 36.524,11.793 36.684,12.77C36.844,13.747 35.522,14.778 33.732,15.071C31.941,15.365 30.359,14.812 30.199,13.835C30.038,12.857 31.36,11.827 33.152,11.533Z" style="fill:rgb(248,150,156);fill-rule:nonzero;"/>
        </g>
    </g>
</svg>
