<?xml version="1.0" encoding="UTF-8" standalone="no"?>
<!DOCTYPE svg PUBLIC "-//W3C//DTD SVG 1.1//EN" "http://www.w3.org/Graphics/SVG/1.1/DTD/svg11.dtd">
<svg width="100%" height="100%" viewBox="0 0 98 91" version="1.1" xmlns="http://www.w3.org/2000/svg" xmlns:xlink="http://www.w3.org/1999/xlink" xml:space="preserve" xmlns:serif="http://www.serif.com/" style="fill-rule:evenodd;clip-rule:evenodd;stroke-linejoin:round;stroke-miterlimit:2;">
    <g id="Tavola-da-disegno1" serif:id="Tavola da disegno1" transform="matrix(1.07778,0,0,1.10976,-5.38852,-4.43902)">
        <rect x="5" y="4" width="90" height="82" style="fill:none;"/>
        <g transform="matrix(0.927835,0,0,0.901099,4.99966,-0.505495)">
            <path d="M46.372,78.876C46.372,78.876 54.676,51.123 34.458,38.452C16.536,27.219 10.428,26.639 6.528,15.861C6.528,15.861 -3.064,41.052 25.812,58.28C25.812,58.28 37.865,64.452 40.641,65.411C40.641,65.411 39.959,62.18 32.475,51.793C32.477,51.792 47.798,60.917 46.372,78.876ZM41.134,35.789C45.034,35.284 47.785,31.7 47.28,27.8C46.762,23.888 43.178,21.149 39.278,21.654C35.378,22.171 32.627,25.743 33.132,29.656C33.65,33.555 37.235,36.306 41.134,35.789ZM49.401,59.15C49.401,59.15 52.253,75.873 44.744,84.139C44.744,84.139 56.04,77.614 51.572,49.192C51.736,49.747 49.856,36.104 58.905,27.863C61.341,25.73 64.546,23.9 68.762,22.714C68.762,22.714 53.996,29.857 55.384,42.327C55.384,42.327 70.277,44.334 77.874,29.126C77.874,29.126 84.071,18.386 95,18.613C95,18.612 36.894,4.073 49.401,59.15Z" style="fill:rgb(248,150,156);fill-rule:nonzero;"/>
        </g>
    </g>
</svg>
