<?xml version="1.0" encoding="UTF-8" standalone="no"?>
<!DOCTYPE svg PUBLIC "-//W3C//DTD SVG 1.1//EN" "http://www.w3.org/Graphics/SVG/1.1/DTD/svg11.dtd">
<svg width="100%" height="100%" viewBox="0 0 1920 1080" version="1.1" xmlns="http://www.w3.org/2000/svg" xmlns:xlink="http://www.w3.org/1999/xlink" xml:space="preserve" xmlns:serif="http://www.serif.com/" style="fill-rule:evenodd;clip-rule:evenodd;stroke-linejoin:round;stroke-miterlimit:2;">
    <g transform="matrix(0.745921,0,0,1.43617,0,-1011.06)">
        <rect x="0" y="704" width="1287" height="376" style="fill:rgb(220,173,236);"/>
    </g>
    <g transform="matrix(0.745921,0,0,1.43617,960,-1011.06)">
        <rect x="0" y="704" width="1287" height="376" style="fill:rgb(238,136,136);"/>
    </g>
    <g transform="matrix(1,0,0,1,265.5,1.13687e-13)">
        <g transform="matrix(1.07118,0,0,0.954665,-185.05,193.37)">
            <path d="M318.824,506.903C274.366,530.926 246,582.185 246,638.5C246,718.804 302.907,784 373,784C443.093,784 500,718.804 500,638.5C500,582.185 471.634,530.926 427.176,506.903L419.834,524.738C458.267,545.505 482.788,589.817 482.788,638.5C482.788,707.92 433.594,764.281 373,764.281C312.406,764.281 263.212,707.92 263.212,638.5C263.212,589.817 287.733,545.505 326.166,524.738L318.824,506.903Z" style="fill:rgb(248,150,237);"/>
        </g>
        <g transform="matrix(1.23329,0,0,1.42446,-677.507,220.041)">
            <path d="M723.277,321C723.277,321 682.555,393.62 682.555,424.743C682.555,444.202 700.802,460 723.277,460C745.753,460 764,444.202 764,424.743C764,393.62 723.277,321 723.277,321Z" style="fill:rgb(220,173,236);"/>
        </g>
        <g transform="matrix(0.672114,0,0,0.648492,-385.106,503.185)">
            <text x="704px" y="540px" style="font-family:'SavoyeLetPlain', 'Savoye LET';font-size:354.596px;fill:rgb(38,38,38);">Spa</text>
        </g>
        <g transform="matrix(0.163103,0,0,0.157371,-38.52,856.687)">
            <text x="704px" y="540px" style="font-family:'ShreeDev0714', 'Shree Devanagari 714';font-size:354.596px;fill:rgb(38,38,38);">C<tspan x="1020.27px 1294.7px 1621.54px 1893.33px 2167.75px " y="540px 540px 540px 540px 540px ">ENTER</tspan></text>
        </g>
        <g transform="matrix(1,0,0,1,-265.5,541)">
            <g transform="matrix(1.11646,0,0,0.6,-44.0575,134)">
                <path d="M447,336.25C447,335.56 446.699,335 446.328,335L344.632,335C344.261,335 343.96,335.56 343.96,336.25L343.96,338.75C343.96,339.44 344.261,340 344.632,340L446.328,340C446.699,340 447,339.44 447,338.75L447,336.25Z" style="fill:rgb(38,38,38);"/>
            </g>
            <g transform="matrix(1.3979,0,0,0.6,-8.82344,134)">
                <path d="M447,336.25C447,335.56 446.76,335 446.463,335L344.497,335C344.201,335 343.96,335.56 343.96,336.25L343.96,338.75C343.96,339.44 344.201,340 344.497,340L446.463,340C446.76,340 447,339.44 447,338.75L447,336.25Z" style="fill:rgb(38,38,38);"/>
            </g>
        </g>
    </g>
    <g transform="matrix(1,0,0,1,867.04,0)">
        <g transform="matrix(1.07118,0,0,0.954665,166.95,193.37)">
            <path d="M318.824,506.903C274.366,530.926 246,582.185 246,638.5C246,718.804 302.907,784 373,784C443.093,784 500,718.804 500,638.5C500,582.185 471.634,530.926 427.176,506.903L419.834,524.738C458.267,545.505 482.788,589.817 482.788,638.5C482.788,707.92 433.594,764.281 373,764.281C312.406,764.281 263.212,707.92 263.212,638.5C263.212,589.817 287.733,545.505 326.166,524.738L318.824,506.903Z" style="fill:rgb(248,150,156);"/>
        </g>
        <g transform="matrix(1.23329,0,0,1.42446,-325.507,220.041)">
            <path d="M723.277,321C723.277,321 682.555,393.62 682.555,424.743C682.555,444.202 700.802,460 723.277,460C745.753,460 764,444.202 764,424.743C764,393.62 723.277,321 723.277,321Z" style="fill:rgb(254,190,172);"/>
        </g>
        <g transform="matrix(0.672114,0,0,0.648492,-33.1059,503.185)">
            <text x="704px" y="540px" style="font-family:'SavoyeLetPlain', 'Savoye LET';font-size:354.596px;fill:rgb(38,38,38);">Spa</text>
        </g>
        <g transform="matrix(0.163103,0,0,0.157371,313.48,856.687)">
            <text x="704px" y="540px" style="font-family:'ShreeDev0714', 'Shree Devanagari 714';font-size:354.596px;fill:rgb(38,38,38);">C<tspan x="1020.27px 1294.7px 1621.54px 1893.33px 2167.75px " y="540px 540px 540px 540px 540px ">ENTER</tspan></text>
        </g>
        <g transform="matrix(1,0,0,1,86.5,539.56)">
            <g transform="matrix(1.11646,0,0,0.6,-44.0575,134)">
                <path d="M447,336.25C447,335.56 446.699,335 446.328,335L344.632,335C344.261,335 343.96,335.56 343.96,336.25L343.96,338.75C343.96,339.44 344.261,340 344.632,340L446.328,340C446.699,340 447,339.44 447,338.75L447,336.25Z" style="fill:rgb(38,38,38);"/>
            </g>
            <g transform="matrix(1.3979,0,0,0.6,-8.82344,134)">
                <path d="M447,336.25C447,335.56 446.76,335 446.463,335L344.497,335C344.201,335 343.96,335.56 343.96,336.25L343.96,338.75C343.96,339.44 344.201,340 344.497,340L446.463,340C446.76,340 447,339.44 447,338.75L447,336.25Z" style="fill:rgb(38,38,38);"/>
            </g>
        </g>
    </g>
    <g transform="matrix(1,0,0,1,265.5,-540)">
        <g transform="matrix(1.07118,0,0,0.954665,-185.05,193.37)">
            <path d="M318.824,506.903C274.366,530.926 246,582.185 246,638.5C246,718.804 302.907,784 373,784C443.093,784 500,718.804 500,638.5C500,582.185 471.634,530.926 427.176,506.903L419.834,524.738C458.267,545.505 482.788,589.817 482.788,638.5C482.788,707.92 433.594,764.281 373,764.281C312.406,764.281 263.212,707.92 263.212,638.5C263.212,589.817 287.733,545.505 326.166,524.738L318.824,506.903Z" style="fill:white;"/>
        </g>
        <g transform="matrix(1.23329,0,0,1.42446,-677.507,220.041)">
            <path d="M723.277,321C723.277,321 682.555,393.62 682.555,424.743C682.555,444.202 700.802,460 723.277,460C745.753,460 764,444.202 764,424.743C764,393.62 723.277,321 723.277,321Z" style="fill:white;"/>
        </g>
        <g transform="matrix(1,0,0,1,-265.5,540)">
            <g transform="matrix(1.11646,0,0,0.6,-44.0575,134)">
                <path d="M447,336.25C447,335.56 446.699,335 446.328,335L344.632,335C344.261,335 343.96,335.56 343.96,336.25L343.96,338.75C343.96,339.44 344.261,340 344.632,340L446.328,340C446.699,340 447,339.44 447,338.75L447,336.25Z" style="fill:rgb(38,38,38);"/>
            </g>
            <g transform="matrix(1.3979,0,0,0.6,-8.82344,134)">
                <path d="M447,336.25C447,335.56 446.76,335 446.463,335L344.497,335C344.201,335 343.96,335.56 343.96,336.25L343.96,338.75C343.96,339.44 344.201,340 344.497,340L446.463,340C446.76,340 447,339.44 447,338.75L447,336.25Z" style="fill:rgb(38,38,38);"/>
            </g>
        </g>
        <g transform="matrix(0.672114,0,0,0.648492,-385.106,503.185)">
            <text x="704px" y="540px" style="font-family:'SavoyeLetPlain', 'Savoye LET';font-size:354.596px;fill:rgb(38,38,38);">Spa</text>
        </g>
        <g transform="matrix(0.163103,0,0,0.157371,-38.52,856.687)">
            <text x="704px" y="540px" style="font-family:'ShreeDev0714', 'Shree Devanagari 714';font-size:354.596px;fill:rgb(38,38,38);">C<tspan x="1020.27px 1294.7px 1621.54px 1893.33px 2167.75px " y="540px 540px 540px 540px 540px ">ENTER</tspan></text>
        </g>
    </g>
    <g transform="matrix(1,0,0,1,512.5,-540)">
        <g transform="matrix(1.07118,0,0,0.954665,527.95,193.37)">
            <path d="M318.824,506.903C274.366,530.926 246,582.185 246,638.5C246,718.804 302.907,784 373,784C443.093,784 500,718.804 500,638.5C500,582.185 471.634,530.926 427.176,506.903L419.834,524.738C458.267,545.505 482.788,589.817 482.788,638.5C482.788,707.92 433.594,764.281 373,764.281C312.406,764.281 263.212,707.92 263.212,638.5C263.212,589.817 287.733,545.505 326.166,524.738L318.824,506.903Z" style="fill:rgb(252,206,206);"/>
        </g>
        <g transform="matrix(1.23329,0,0,1.42446,35.4927,220.041)">
            <path d="M723.277,321C723.277,321 682.555,393.62 682.555,424.743C682.555,444.202 700.802,460 723.277,460C745.753,460 764,444.202 764,424.743C764,393.62 723.277,321 723.277,321Z" style="fill:rgb(252,206,206);"/>
        </g>
        <g transform="matrix(0.672114,0,0,0.648492,327.894,503.185)">
            <text x="704px" y="540px" style="font-family:'SavoyeLetPlain', 'Savoye LET';font-size:354.596px;fill:rgb(38,38,38);">Spa</text>
        </g>
        <g transform="matrix(0.163103,0,0,0.157371,674.48,856.687)">
            <text x="704px" y="540px" style="font-family:'ShreeDev0714', 'Shree Devanagari 714';font-size:354.596px;fill:rgb(38,38,38);">C<tspan x="1020.27px 1294.7px 1621.54px 1893.33px 2167.75px " y="540px 540px 540px 540px 540px ">ENTER</tspan></text>
        </g>
        <g transform="matrix(1,0,0,1,447.5,539.56)">
            <g transform="matrix(1.11646,0,0,0.6,-44.0575,134)">
                <path d="M447,336.25C447,335.56 446.699,335 446.328,335L344.632,335C344.261,335 343.96,335.56 343.96,336.25L343.96,338.75C343.96,339.44 344.261,340 344.632,340L446.328,340C446.699,340 447,339.44 447,338.75L447,336.25Z" style="fill:rgb(38,38,38);"/>
            </g>
            <g transform="matrix(1.3979,0,0,0.6,-8.82344,134)">
                <path d="M447,336.25C447,335.56 446.76,335 446.463,335L344.497,335C344.201,335 343.96,335.56 343.96,336.25L343.96,338.75C343.96,339.44 344.201,340 344.497,340L446.463,340C446.76,340 447,339.44 447,338.75L447,336.25Z" style="fill:rgb(38,38,38);"/>
            </g>
        </g>
    </g>
</svg>
